# xmcd
#
# Track frame offsets:
#	150
#	16664
#	33814
#	50515
#	65603
#	81037
#	102690
#	117704
#	129562
#	150023
#	165031
#	181273
#	198623
#	217511
#	234176
#	254139
#
# Disc length: 3657 seconds
#
# Revision: 4
# Processed by: cddbd v1.5.2PL0 Copyright (c) Steve Scherf et al.
# Submitted via: EasyCDDAExtractor 15.3.0.1
#
DISCID=c60e4710
DTITLE=Rocio Durcal - Su Historia Y Exitos Musicales Vol. 2 - CD 1
DYEAR=2004
DGENRE=Latin
TTITLE0=La Gata Bajo La Lluvia
TTITLE1=No Sirvo Para Estar Sin Ti
TTITLE2=Marinero
TTITLE3=Tenias Que Ser Tan Cruel
TTITLE4=Adios
TTITLE5=Frente A Frente
TTITLE6=Jamas Te Dejare
TTITLE7=Olvidemonos
TTITLE8=Por Que Fue Que Te Ame
TTITLE9=Yo Te Perdono
TTITLE10=Por Que Me Tratas Asi
TTITLE11=Tu Foto En La Pared
TTITLE12=Amor No, Gracias
TTITLE13=Fruta Verde
TTITLE14=Rindete
TTITLE15=La Verdad De La Verdad
EXTD=YEAR: 2004
EXTT0=
EXTT1=
EXTT2=
EXTT3=
EXTT4=
EXTT5=
EXTT6=
EXTT7=
EXTT8=
EXTT9=
EXTT10=
EXTT11=
EXTT12=
EXTT13=
EXTT14=
EXTT15=
PLAYORDER=
